<svg width="262" height="47" viewBox="0 0 262 47" fill="none" xmlns="http://www.w3.org/2000/svg">
<path d="M9.552 23.432C7.088 23.432 5.2 22.68 3.888 21.176C2.592 19.656 1.944 17.4 1.944 14.408V14.072C1.944 11.064 2.576 8.808 3.84 7.304C5.12 5.8 6.984 5.048 9.432 5.048C10.968 5.048 12.24 5.312 13.248 5.84C14.272 6.352 15.04 7.072 15.552 8C16.08 8.912 16.368 9.968 16.416 11.168H12.576C12.512 10.368 12.224 9.736 11.712 9.272C11.216 8.792 10.456 8.552 9.432 8.552C8.136 8.552 7.208 8.984 6.648 9.848C6.104 10.712 5.832 12.176 5.832 14.24C5.832 16.304 6.12 17.768 6.696 18.632C7.288 19.496 8.24 19.928 9.552 19.928C10.592 19.928 11.36 19.696 11.856 19.232C12.368 18.752 12.656 18.112 12.72 17.312H16.56C16.512 18.496 16.224 19.552 15.696 20.48C15.184 21.408 14.416 22.136 13.392 22.664C12.384 23.176 11.104 23.432 9.552 23.432ZM0.24 17.264V15.2H10.584V17.264H0.24ZM0.672 13.616V11.552H11.016V13.616H0.672Z" fill="#62C3C6"/>
<path d="M25.984 23V8.552L27.04 9.368H22.72V5.48H30.448V23H25.984ZM36.5365 23V8.552L37.5925 9.368H33.2725V5.48H41.0005V23H36.5365ZM46.441 27.224L43.105 25.928L45.745 18.2L49.441 19.544L46.441 27.224ZM58.6658 23.528C57.3698 23.528 56.2418 23.32 55.2818 22.904C54.3378 22.472 53.5538 21.872 52.9298 21.104C52.3218 20.336 51.8658 19.448 51.5618 18.44C51.2738 17.416 51.1298 16.32 51.1298 15.152V14.192C51.1298 11.232 51.8898 9.016 53.4098 7.544C54.9298 6.072 57.1858 5.336 60.1778 5.336C60.7698 5.336 61.3778 5.352 62.0018 5.384C62.6258 5.416 63.2098 5.464 63.7538 5.528V9.272C63.2258 9.224 62.6338 9.184 61.9778 9.152C61.3218 9.104 60.6738 9.08 60.0338 9.08C58.8018 9.08 57.8338 9.272 57.1298 9.656C56.4418 10.04 55.9538 10.624 55.6658 11.408C55.3938 12.192 55.2578 13.184 55.2578 14.384V16.448L54.2978 16.496C54.3138 15.312 54.5538 14.328 55.0178 13.544C55.4978 12.744 56.1538 12.144 56.9858 11.744C57.8178 11.344 58.7778 11.144 59.8658 11.144C61.0978 11.144 62.1618 11.392 63.0578 11.888C63.9698 12.368 64.6738 13.048 65.1698 13.928C65.6658 14.808 65.9138 15.856 65.9138 17.072C65.9138 18.384 65.6018 19.528 64.9778 20.504C64.3698 21.464 63.5218 22.208 62.4338 22.736C61.3458 23.264 60.0898 23.528 58.6658 23.528ZM58.5218 19.832C59.1618 19.832 59.7058 19.72 60.1538 19.496C60.6178 19.272 60.9698 18.96 61.2098 18.56C61.4658 18.16 61.5938 17.696 61.5938 17.168C61.5938 16.624 61.4738 16.16 61.2338 15.776C60.9938 15.376 60.6498 15.064 60.2018 14.84C59.7538 14.616 59.2178 14.504 58.5938 14.504C58.0338 14.504 57.5138 14.6 57.0338 14.792C56.5538 14.984 56.1698 15.28 55.8818 15.68C55.5938 16.064 55.4498 16.56 55.4498 17.168C55.4498 17.696 55.5698 18.16 55.8098 18.56C56.0498 18.96 56.3938 19.272 56.8418 19.496C57.3058 19.72 57.8658 19.832 58.5218 19.832ZM75.6167 23.528C74.3207 23.528 73.1927 23.32 72.2327 22.904C71.2887 22.472 70.5047 21.872 69.8807 21.104C69.2727 20.336 68.8167 19.448 68.5127 18.44C68.2247 17.416 68.0807 16.32 68.0807 15.152V14.192C68.0807 11.232 68.8407 9.016 70.3607 7.544C71.8807 6.072 74.1367 5.336 77.1287 5.336C77.7207 5.336 78.3287 5.352 78.9528 5.384C79.5767 5.416 80.1607 5.464 80.7047 5.528V9.272C80.1767 9.224 79.5847 9.184 78.9287 9.152C78.2727 9.104 77.6247 9.08 76.9847 9.08C75.7527 9.08 74.7847 9.272 74.0807 9.656C73.3927 10.04 72.9047 10.624 72.6167 11.408C72.3447 12.192 72.2087 13.184 72.2087 14.384V16.448L71.2487 16.496C71.2647 15.312 71.5047 14.328 71.9687 13.544C72.4487 12.744 73.1047 12.144 73.9367 11.744C74.7687 11.344 75.7287 11.144 76.8167 11.144C78.0487 11.144 79.1127 11.392 80.0087 11.888C80.9208 12.368 81.6248 13.048 82.1207 13.928C82.6167 14.808 82.8647 15.856 82.8647 17.072C82.8647 18.384 82.5527 19.528 81.9287 20.504C81.3207 21.464 80.4727 22.208 79.3848 22.736C78.2968 23.264 77.0407 23.528 75.6167 23.528ZM75.4727 19.832C76.1127 19.832 76.6567 19.72 77.1047 19.496C77.5687 19.272 77.9207 18.96 78.1607 18.56C78.4167 18.16 78.5447 17.696 78.5447 17.168C78.5447 16.624 78.4247 16.16 78.1847 15.776C77.9447 15.376 77.6007 15.064 77.1527 14.84C76.7047 14.616 76.1687 14.504 75.5447 14.504C74.9847 14.504 74.4647 14.6 73.9847 14.792C73.5047 14.984 73.1207 15.28 72.8327 15.68C72.5447 16.064 72.4007 16.56 72.4007 17.168C72.4007 17.696 72.5207 18.16 72.7607 18.56C73.0007 18.96 73.3447 19.272 73.7927 19.496C74.2567 19.72 74.8167 19.832 75.4727 19.832Z" fill="#116A6C"/>
<path d="M88.3145 13.8848V8.38672H88.2949L86.4395 9.56836V8.26953L88.3145 7.04883H89.6426V13.8848H88.3145Z" fill="#365758"/>
<path d="M1.164 46.4V37.652H1.884V40.376L1.668 40.4C1.7 39.76 1.836 39.22 2.076 38.78C2.324 38.34 2.656 38.008 3.072 37.784C3.496 37.552 3.968 37.436 4.488 37.436C4.952 37.436 5.372 37.528 5.748 37.712C6.132 37.888 6.456 38.132 6.72 38.444C6.992 38.748 7.196 39.1 7.332 39.5C7.476 39.892 7.548 40.304 7.548 40.736V40.904C7.548 41.336 7.476 41.752 7.332 42.152C7.188 42.544 6.98 42.896 6.708 43.208C6.444 43.512 6.12 43.756 5.736 43.94C5.36 44.116 4.936 44.204 4.464 44.204C3.96 44.204 3.496 44.092 3.072 43.868C2.656 43.636 2.316 43.296 2.052 42.848C1.796 42.4 1.656 41.848 1.632 41.192L2.064 42.092V46.4H1.164ZM4.344 43.412C4.824 43.412 5.236 43.3 5.58 43.076C5.924 42.844 6.188 42.532 6.372 42.14C6.556 41.74 6.648 41.3 6.648 40.82C6.648 40.324 6.552 39.884 6.36 39.5C6.176 39.108 5.912 38.8 5.568 38.576C5.224 38.344 4.816 38.228 4.344 38.228C3.912 38.228 3.52 38.324 3.168 38.516C2.816 38.708 2.536 38.98 2.328 39.332C2.128 39.676 2.028 40.084 2.028 40.556V41.144C2.028 41.592 2.128 41.988 2.328 42.332C2.536 42.668 2.816 42.932 3.168 43.124C3.52 43.316 3.912 43.412 4.344 43.412ZM9.48712 44V37.652H10.2071V40.304H10.1351C10.1351 39.376 10.3391 38.692 10.7471 38.252C11.1551 37.804 11.7951 37.58 12.6671 37.58H12.8711V38.396H12.4991C11.8111 38.396 11.2871 38.576 10.9271 38.936C10.5671 39.288 10.3871 39.808 10.3871 40.496V44H9.48712ZM17.2089 44.204C16.6649 44.204 16.1849 44.112 15.7689 43.928C15.3609 43.736 15.0129 43.484 14.7249 43.172C14.4449 42.852 14.2289 42.496 14.0769 42.104C13.9329 41.712 13.8609 41.312 13.8609 40.904V40.736C13.8609 40.328 13.9369 39.928 14.0889 39.536C14.2409 39.136 14.4609 38.78 14.7489 38.468C15.0369 38.156 15.3849 37.908 15.7929 37.724C16.2089 37.532 16.6809 37.436 17.2089 37.436C17.7449 37.436 18.2169 37.532 18.6249 37.724C19.0409 37.908 19.3929 38.156 19.6809 38.468C19.9689 38.78 20.1849 39.136 20.3289 39.536C20.4809 39.928 20.5569 40.328 20.5569 40.736V40.904C20.5569 41.312 20.4849 41.712 20.3409 42.104C20.1969 42.496 19.9809 42.852 19.6929 43.172C19.4129 43.484 19.0649 43.736 18.6489 43.928C18.2329 44.112 17.7529 44.204 17.2089 44.204ZM17.2089 43.4C17.7369 43.4 18.1809 43.284 18.5409 43.052C18.9089 42.812 19.1889 42.5 19.3809 42.116C19.5729 41.724 19.6689 41.292 19.6689 40.82C19.6689 40.34 19.5689 39.908 19.3689 39.524C19.1769 39.132 18.8969 38.824 18.5289 38.6C18.1609 38.368 17.7209 38.252 17.2089 38.252C16.7049 38.252 16.2689 38.368 15.9009 38.6C15.5329 38.824 15.2489 39.132 15.0489 39.524C14.8569 39.908 14.7609 40.34 14.7609 40.82C14.7609 41.292 14.8569 41.724 15.0489 42.116C15.2409 42.5 15.5169 42.812 15.8769 43.052C16.2449 43.284 16.6889 43.4 17.2089 43.4ZM29.4651 44.204C28.7451 44.204 28.1051 44.084 27.5451 43.844C26.9931 43.604 26.5291 43.276 26.1531 42.86C25.7771 42.436 25.4891 41.952 25.2891 41.408C25.0971 40.856 25.0011 40.276 25.0011 39.668V39.452C25.0011 38.892 25.0931 38.348 25.2771 37.82C25.4691 37.292 25.7451 36.816 26.1051 36.392C26.4651 35.968 26.9131 35.632 27.4491 35.384C27.9851 35.136 28.5931 35.012 29.2731 35.012C29.9851 35.012 30.6171 35.148 31.1691 35.42C31.7211 35.684 32.1651 36.056 32.5011 36.536C32.8451 37.016 33.0451 37.572 33.1011 38.204H32.1771C32.1131 37.692 31.9411 37.26 31.6611 36.908C31.3891 36.556 31.0451 36.292 30.6291 36.116C30.2131 35.94 29.7611 35.852 29.2731 35.852C28.7611 35.852 28.2971 35.944 27.8811 36.128C27.4651 36.312 27.1131 36.572 26.8251 36.908C26.5371 37.244 26.3131 37.64 26.1531 38.096C26.0011 38.544 25.9251 39.036 25.9251 39.572C25.9251 40.14 26.0051 40.66 26.1651 41.132C26.3251 41.596 26.5571 41.996 26.8611 42.332C27.1651 42.668 27.5331 42.928 27.9651 43.112C28.4051 43.296 28.9051 43.388 29.4651 43.388C30.1531 43.388 30.7571 43.256 31.2771 42.992C31.8051 42.72 32.2131 42.364 32.5011 41.924L32.1411 43.052V40.46H33.0051V42.644C32.6291 43.132 32.1411 43.516 31.5411 43.796C30.9411 44.068 30.2491 44.204 29.4651 44.204ZM29.1411 40.652V39.884H33.7851V40.652H29.1411ZM35.5257 44V37.652H36.2457V40.304H36.1737C36.1737 39.376 36.3777 38.692 36.7857 38.252C37.1937 37.804 37.8337 37.58 38.7057 37.58H38.9097V38.396H38.5377C37.8497 38.396 37.3257 38.576 36.9657 38.936C36.6057 39.288 36.4257 39.808 36.4257 40.496V44H35.5257ZM44.3261 44V42.092H44.1821V39.836C44.1821 39.364 44.0581 39.004 43.8101 38.756C43.5621 38.5 43.1781 38.372 42.6581 38.372C42.4181 38.372 42.1741 38.376 41.9261 38.384C41.6861 38.392 41.4541 38.404 41.2301 38.42C41.0141 38.428 40.8221 38.44 40.6541 38.456V37.664C40.8301 37.648 41.0101 37.632 41.1941 37.616C41.3781 37.6 41.5661 37.592 41.7581 37.592C41.9581 37.584 42.1501 37.58 42.3341 37.58C42.9821 37.58 43.5021 37.66 43.8941 37.82C44.2941 37.98 44.5861 38.232 44.7701 38.576C44.9541 38.912 45.0461 39.36 45.0461 39.92V44H44.3261ZM42.1781 44.168C41.7301 44.168 41.3341 44.088 40.9901 43.928C40.6461 43.768 40.3781 43.536 40.1861 43.232C40.0021 42.928 39.9101 42.56 39.9101 42.128C39.9101 41.704 40.0061 41.344 40.1981 41.048C40.3981 40.752 40.6821 40.528 41.0501 40.376C41.4261 40.216 41.8781 40.136 42.4061 40.136H44.2661V40.82H42.3461C41.8421 40.82 41.4541 40.944 41.1821 41.192C40.9181 41.432 40.7861 41.748 40.7861 42.14C40.7861 42.54 40.9261 42.86 41.2061 43.1C41.4861 43.332 41.8661 43.448 42.3461 43.448C42.6421 43.448 42.9261 43.396 43.1981 43.292C43.4701 43.18 43.6981 42.996 43.8821 42.74C44.0661 42.476 44.1661 42.116 44.1821 41.66L44.4461 42.032C44.4141 42.504 44.3021 42.9 44.1101 43.22C43.9181 43.532 43.6581 43.768 43.3301 43.928C43.0021 44.088 42.6181 44.168 42.1781 44.168ZM47.4142 44V37.64H48.1342V40.316H47.9902C47.9902 39.732 48.0702 39.228 48.2302 38.804C48.3982 38.38 48.6462 38.052 48.9742 37.82C49.3022 37.58 49.7182 37.46 50.2222 37.46H50.2582C50.7622 37.46 51.1782 37.576 51.5062 37.808C51.8342 38.04 52.0782 38.368 52.2382 38.792C52.3982 39.216 52.4782 39.724 52.4782 40.316H52.1902C52.1902 39.732 52.2702 39.228 52.4302 38.804C52.5982 38.38 52.8462 38.052 53.1742 37.82C53.5102 37.58 53.9302 37.46 54.4342 37.46H54.4702C54.9742 37.46 55.3902 37.576 55.7182 37.808C56.0542 38.04 56.3022 38.368 56.4622 38.792C56.6302 39.216 56.7142 39.724 56.7142 40.316V44H55.8142V40.112C55.8142 39.552 55.6782 39.108 55.4062 38.78C55.1342 38.452 54.7422 38.288 54.2302 38.288C53.7022 38.288 53.2822 38.46 52.9702 38.804C52.6662 39.14 52.5142 39.596 52.5142 40.172V44H51.6142V40.112C51.6142 39.552 51.4782 39.108 51.2062 38.78C50.9342 38.452 50.5422 38.288 50.0302 38.288C49.5022 38.288 49.0822 38.46 48.7702 38.804C48.4662 39.14 48.3142 39.596 48.3142 40.172V44H47.4142ZM59.0771 44V37.64H59.7971V40.316H59.6531C59.6531 39.732 59.7331 39.228 59.8931 38.804C60.0611 38.38 60.3091 38.052 60.6371 37.82C60.9651 37.58 61.3811 37.46 61.8851 37.46H61.9211C62.4251 37.46 62.8411 37.576 63.1691 37.808C63.4971 38.04 63.7411 38.368 63.9011 38.792C64.0611 39.216 64.1411 39.724 64.1411 40.316H63.8531C63.8531 39.732 63.9331 39.228 64.0931 38.804C64.2611 38.38 64.5091 38.052 64.8371 37.82C65.1731 37.58 65.5931 37.46 66.0971 37.46H66.1331C66.6371 37.46 67.0531 37.576 67.3811 37.808C67.7171 38.04 67.9651 38.368 68.1251 38.792C68.2931 39.216 68.3771 39.724 68.3771 40.316V44H67.4771V40.112C67.4771 39.552 67.3411 39.108 67.0691 38.78C66.7971 38.452 66.4051 38.288 65.8931 38.288C65.3651 38.288 64.9451 38.46 64.6331 38.804C64.3291 39.14 64.1771 39.596 64.1771 40.172V44H63.2771V40.112C63.2771 39.552 63.1411 39.108 62.8691 38.78C62.5971 38.452 62.2051 38.288 61.6931 38.288C61.1651 38.288 60.7451 38.46 60.4331 38.804C60.1291 39.14 59.9771 39.596 59.9771 40.172V44H59.0771Z" fill="#365758"/>
<path d="M98 31C98 17.7452 108.745 7 122 7H262V16C262 29.2548 251.255 40 238 40H98V31Z" fill="#ECFEAA"/>
<path d="M117.652 28V20.524H118.996V28H117.652ZM116.504 21.588V20.524H118.996V21.588H116.504ZM118.03 19.32C117.731 19.32 117.507 19.2407 117.358 19.082C117.218 18.9233 117.148 18.7227 117.148 18.48C117.148 18.2373 117.218 18.0367 117.358 17.878C117.507 17.7193 117.731 17.64 118.03 17.64C118.329 17.64 118.548 17.7193 118.688 17.878C118.837 18.0367 118.912 18.2373 118.912 18.48C118.912 18.7227 118.837 18.9233 118.688 19.082C118.548 19.2407 118.329 19.32 118.03 19.32ZM121.735 28V20.524H122.799V23.73H122.631C122.631 22.9927 122.729 22.372 122.925 21.868C123.13 21.3547 123.438 20.9673 123.849 20.706C124.259 20.4353 124.777 20.3 125.403 20.3H125.459C126.401 20.3 127.097 20.594 127.545 21.182C128.002 21.77 128.231 22.6193 128.231 23.73V28H126.887V23.45C126.887 22.8713 126.723 22.4093 126.397 22.064C126.07 21.7093 125.622 21.532 125.053 21.532C124.465 21.532 123.989 21.714 123.625 22.078C123.261 22.442 123.079 22.9273 123.079 23.534V28H121.735ZM137.277 28.252C136.745 28.252 136.255 28.154 135.807 27.958C135.359 27.762 134.967 27.4867 134.631 27.132C134.305 26.7773 134.048 26.3667 133.861 25.9C133.684 25.4333 133.595 24.9293 133.595 24.388V24.136C133.595 23.604 133.684 23.1047 133.861 22.638C134.039 22.1713 134.286 21.7607 134.603 21.406C134.93 21.0513 135.313 20.776 135.751 20.58C136.199 20.3747 136.694 20.272 137.235 20.272C137.805 20.272 138.323 20.3933 138.789 20.636C139.256 20.8693 139.639 21.238 139.937 21.742C140.236 22.246 140.404 22.8993 140.441 23.702L139.881 22.806V17.78H141.225V28H140.161V24.682H140.553C140.516 25.5313 140.339 26.222 140.021 26.754C139.704 27.2767 139.303 27.6593 138.817 27.902C138.341 28.1353 137.828 28.252 137.277 28.252ZM137.459 27.076C137.917 27.076 138.332 26.9733 138.705 26.768C139.079 26.5627 139.377 26.2687 139.601 25.886C139.825 25.494 139.937 25.0367 139.937 24.514V23.87C139.937 23.3567 139.821 22.9227 139.587 22.568C139.363 22.204 139.06 21.9287 138.677 21.742C138.304 21.546 137.893 21.448 137.445 21.448C136.951 21.448 136.512 21.5647 136.129 21.798C135.756 22.0313 135.462 22.358 135.247 22.778C135.042 23.198 134.939 23.6927 134.939 24.262C134.939 24.8313 135.047 25.3307 135.261 25.76C135.476 26.18 135.775 26.5067 136.157 26.74C136.54 26.964 136.974 27.076 137.459 27.076ZM147.126 28.252C146.472 28.252 145.908 28.14 145.432 27.916C144.956 27.692 144.568 27.398 144.27 27.034C143.971 26.6607 143.747 26.2453 143.598 25.788C143.458 25.3307 143.388 24.864 143.388 24.388V24.136C143.388 23.6507 143.458 23.1793 143.598 22.722C143.747 22.2647 143.971 21.854 144.27 21.49C144.568 21.1167 144.946 20.8227 145.404 20.608C145.87 20.384 146.416 20.272 147.042 20.272C147.854 20.272 148.521 20.4493 149.044 20.804C149.576 21.1493 149.968 21.5973 150.22 22.148C150.481 22.6987 150.612 23.2867 150.612 23.912V24.514H143.976V23.506H149.632L149.324 24.052C149.324 23.52 149.24 23.0627 149.072 22.68C148.904 22.288 148.652 21.9847 148.316 21.77C147.98 21.5553 147.555 21.448 147.042 21.448C146.51 21.448 146.066 21.5693 145.712 21.812C145.366 22.0547 145.105 22.386 144.928 22.806C144.76 23.226 144.676 23.7113 144.676 24.262C144.676 24.794 144.76 25.2747 144.928 25.704C145.105 26.124 145.376 26.46 145.74 26.712C146.104 26.9547 146.566 27.076 147.126 27.076C147.714 27.076 148.19 26.9453 148.554 26.684C148.927 26.4227 149.151 26.1193 149.226 25.774H150.486C150.383 26.2873 150.178 26.7307 149.87 27.104C149.562 27.4773 149.174 27.762 148.708 27.958C148.241 28.154 147.714 28.252 147.126 28.252ZM152.66 28V20.524H153.724V23.73H153.556C153.556 22.9927 153.654 22.372 153.85 21.868C154.055 21.3547 154.363 20.9673 154.774 20.706C155.185 20.4353 155.703 20.3 156.328 20.3H156.384C157.327 20.3 158.022 20.594 158.47 21.182C158.927 21.77 159.156 22.6193 159.156 23.73V28H157.812V23.45C157.812 22.8713 157.649 22.4093 157.322 22.064C156.995 21.7093 156.547 21.532 155.978 21.532C155.39 21.532 154.914 21.714 154.55 22.078C154.186 22.442 154.004 22.9273 154.004 23.534V28H152.66ZM166.97 28L164.212 17.78H165.626L168.02 27.104L167.362 26.768H169.028L168.3 27.104L170.246 18.2H171.535L169.308 28H166.97ZM173.116 28L170.666 18.2H171.996L174.194 27.104L173.494 26.768H175.174L174.46 27.104L176.602 17.78H177.974L175.469 28H173.116ZM184.18 28V25.76H183.956V23.17C183.956 22.6567 183.821 22.2693 183.55 22.008C183.289 21.7467 182.901 21.616 182.388 21.616C182.099 21.616 181.8 21.6207 181.492 21.63C181.184 21.6393 180.89 21.6487 180.61 21.658C180.33 21.6673 180.087 21.6813 179.882 21.7V20.524C180.087 20.5053 180.302 20.4913 180.526 20.482C180.759 20.4633 180.997 20.454 181.24 20.454C181.483 20.4447 181.716 20.44 181.94 20.44C182.705 20.44 183.331 20.5333 183.816 20.72C184.301 20.8973 184.661 21.1913 184.894 21.602C185.127 22.0127 185.244 22.568 185.244 23.268V28H184.18ZM181.73 28.196C181.17 28.196 180.685 28.1027 180.274 27.916C179.873 27.72 179.56 27.44 179.336 27.076C179.121 26.712 179.014 26.2733 179.014 25.76C179.014 25.228 179.131 24.7847 179.364 24.43C179.607 24.0753 179.957 23.8093 180.414 23.632C180.871 23.4453 181.422 23.352 182.066 23.352H184.096V24.36H182.01C181.469 24.36 181.053 24.4907 180.764 24.752C180.475 25.0133 180.33 25.3493 180.33 25.76C180.33 26.1707 180.475 26.502 180.764 26.754C181.053 27.006 181.469 27.132 182.01 27.132C182.327 27.132 182.631 27.076 182.92 26.964C183.209 26.8427 183.447 26.6467 183.634 26.376C183.83 26.096 183.937 25.7133 183.956 25.228L184.32 25.76C184.273 26.292 184.143 26.74 183.928 27.104C183.723 27.4587 183.433 27.7293 183.06 27.916C182.696 28.1027 182.253 28.196 181.73 28.196ZM187.851 28V20.524H188.915V23.604H188.859C188.859 22.512 189.097 21.714 189.573 21.21C190.058 20.6967 190.781 20.44 191.743 20.44H191.995V21.644H191.519C190.772 21.644 190.198 21.8447 189.797 22.246C189.395 22.638 189.195 23.2073 189.195 23.954V28H187.851ZM196.829 28.252C196.176 28.252 195.611 28.14 195.135 27.916C194.659 27.692 194.272 27.398 193.973 27.034C193.674 26.6607 193.45 26.2453 193.301 25.788C193.161 25.3307 193.091 24.864 193.091 24.388V24.136C193.091 23.6507 193.161 23.1793 193.301 22.722C193.45 22.2647 193.674 21.854 193.973 21.49C194.272 21.1167 194.65 20.8227 195.107 20.608C195.574 20.384 196.12 20.272 196.745 20.272C197.557 20.272 198.224 20.4493 198.747 20.804C199.279 21.1493 199.671 21.5973 199.923 22.148C200.184 22.6987 200.315 23.2867 200.315 23.912V24.514H193.679V23.506H199.335L199.027 24.052C199.027 23.52 198.943 23.0627 198.775 22.68C198.607 22.288 198.355 21.9847 198.019 21.77C197.683 21.5553 197.258 21.448 196.745 21.448C196.213 21.448 195.77 21.5693 195.415 21.812C195.07 22.0547 194.808 22.386 194.631 22.806C194.463 23.226 194.379 23.7113 194.379 24.262C194.379 24.794 194.463 25.2747 194.631 25.704C194.808 26.124 195.079 26.46 195.443 26.712C195.807 26.9547 196.269 27.076 196.829 27.076C197.417 27.076 197.893 26.9453 198.257 26.684C198.63 26.4227 198.854 26.1193 198.929 25.774H200.189C200.086 26.2873 199.881 26.7307 199.573 27.104C199.265 27.4773 198.878 27.762 198.411 27.958C197.944 28.154 197.417 28.252 196.829 28.252ZM202.363 28V20.524H203.427V23.73H203.259C203.259 22.9927 203.357 22.372 203.553 21.868C203.758 21.3547 204.066 20.9673 204.477 20.706C204.888 20.4353 205.406 20.3 206.031 20.3H206.087C207.03 20.3 207.725 20.594 208.173 21.182C208.63 21.77 208.859 22.6193 208.859 23.73V28H207.515V23.45C207.515 22.8713 207.352 22.4093 207.025 22.064C206.698 21.7093 206.25 21.532 205.681 21.532C205.093 21.532 204.617 21.714 204.253 22.078C203.889 22.442 203.707 22.9273 203.707 23.534V28H202.363ZM216.61 28L213.796 24.514H212.564L215.994 20.524H217.408L214.3 24.122L214.398 23.408L218.164 28H216.61ZM211.458 28V17.78H212.802V28H211.458ZM222.904 28.252C222.25 28.252 221.676 28.14 221.182 27.916C220.687 27.692 220.267 27.398 219.922 27.034C219.586 26.6607 219.329 26.2453 219.152 25.788C218.984 25.3307 218.9 24.864 218.9 24.388V24.136C218.9 23.66 218.988 23.1933 219.166 22.736C219.343 22.2693 219.604 21.854 219.95 21.49C220.295 21.1167 220.715 20.8227 221.21 20.608C221.704 20.384 222.269 20.272 222.904 20.272C223.538 20.272 224.103 20.384 224.598 20.608C225.092 20.8227 225.512 21.1167 225.858 21.49C226.203 21.854 226.464 22.2693 226.642 22.736C226.819 23.1933 226.908 23.66 226.908 24.136V24.388C226.908 24.864 226.819 25.3307 226.642 25.788C226.474 26.2453 226.217 26.6607 225.872 27.034C225.536 27.398 225.12 27.692 224.626 27.916C224.131 28.14 223.557 28.252 222.904 28.252ZM222.904 27.048C223.464 27.048 223.94 26.9267 224.332 26.684C224.733 26.432 225.036 26.096 225.242 25.676C225.456 25.256 225.564 24.7847 225.564 24.262C225.564 23.73 225.456 23.254 225.242 22.834C225.027 22.414 224.719 22.0827 224.318 21.84C223.926 21.5973 223.454 21.476 222.904 21.476C222.362 21.476 221.891 21.5973 221.49 21.84C221.088 22.0827 220.78 22.414 220.566 22.834C220.351 23.254 220.244 23.73 220.244 24.262C220.244 24.7847 220.346 25.256 220.552 25.676C220.766 26.096 221.07 26.432 221.462 26.684C221.863 26.9267 222.344 27.048 222.904 27.048ZM229.06 28V20.524H230.124V23.604H230.068C230.068 22.512 230.306 21.714 230.782 21.21C231.268 20.6967 231.991 20.44 232.952 20.44H233.204V21.644H232.728C231.982 21.644 231.408 21.8447 231.006 22.246C230.605 22.638 230.404 23.2073 230.404 23.954V28H229.06ZM238.891 28.252C238.275 28.252 237.724 28.1167 237.239 27.846C236.763 27.5753 236.385 27.1833 236.105 26.67C235.825 26.1473 235.671 25.522 235.643 24.794H236.007V28H234.943V17.78H236.287V22.75L235.811 23.772C235.848 22.96 236.011 22.2973 236.301 21.784C236.59 21.2707 236.968 20.8927 237.435 20.65C237.911 20.398 238.433 20.272 239.003 20.272C239.535 20.272 240.02 20.3747 240.459 20.58C240.897 20.776 241.275 21.0513 241.593 21.406C241.91 21.7513 242.153 22.1573 242.321 22.624C242.489 23.0813 242.573 23.576 242.573 24.108V24.36C242.573 24.892 242.484 25.3913 242.307 25.858C242.139 26.3247 241.891 26.74 241.565 27.104C241.238 27.4587 240.846 27.7387 240.389 27.944C239.941 28.1493 239.441 28.252 238.891 28.252ZM238.737 27.076C239.241 27.076 239.679 26.9547 240.053 26.712C240.426 26.4693 240.715 26.138 240.921 25.718C241.126 25.2887 241.229 24.794 241.229 24.234C241.229 23.674 241.121 23.184 240.907 22.764C240.701 22.344 240.412 22.022 240.039 21.798C239.665 21.5647 239.231 21.448 238.737 21.448C238.289 21.448 237.873 21.5507 237.491 21.756C237.108 21.952 236.8 22.2413 236.567 22.624C236.343 22.9973 236.231 23.45 236.231 23.982V24.626C236.231 25.1393 236.347 25.578 236.581 25.942C236.814 26.306 237.122 26.586 237.505 26.782C237.887 26.978 238.298 27.076 238.737 27.076Z" fill="#365758"/>
</svg>
