<svg width="500" height="150" viewBox="0 0 250 52" fill="none" xmlns="http://www.w3.org/2000/svg">
<rect y="7" width="250" height="7" rx="3.5" fill="#62C3C6" fill-opacity="0.3"/>
<rect x="41" y="7" width="69" height="7" rx="3.5" fill="#62C3C6"/>
<path d="M37.3077 15.3846C37.3077 6.88793 44.1956 0 52.6923 0V4.61539C52.6923 13.1121 45.8044 20 37.3077 20V15.3846Z" fill="#62C3C6"/>
<path d="M102 15.3846C102 6.88793 108.888 0 117.385 0V4.61539C117.385 13.1121 110.497 20 102 20V15.3846Z" fill="#62C3C6"/>
<rect y="28" width="116" height="24" rx="12" fill="#819191" fill-opacity="0.1"/>
<path d="M15.056 45.288C14.16 45.288 13.4027 45.1067 12.784 44.744C12.1653 44.3707 11.696 43.8853 11.376 43.288C11.056 42.6907 10.896 42.056 10.896 41.384H12.4C12.4 41.8747 12.5067 42.312 12.72 42.696C12.944 43.08 13.2533 43.384 13.648 43.608C14.0427 43.832 14.512 43.944 15.056 43.944C15.5893 43.944 16.0533 43.8373 16.448 43.624C16.8533 43.4 17.168 43.096 17.392 42.712C17.616 42.3173 17.728 41.8747 17.728 41.384C17.728 40.8933 17.616 40.4507 17.392 40.056C17.1787 39.6613 16.8693 39.3467 16.464 39.112C16.0693 38.8773 15.6 38.76 15.056 38.76C14.6613 38.76 14.2613 38.8293 13.856 38.968C13.4507 39.096 13.1253 39.2827 12.88 39.528H11.472L12.064 33.32H18.192V34.632H12.96L13.344 34.104L12.896 38.632L12.48 38.488C12.7893 38.1787 13.1627 37.9333 13.6 37.752C14.048 37.5707 14.5547 37.48 15.12 37.48C16.016 37.48 16.768 37.6667 17.376 38.04C17.984 38.4027 18.4427 38.8773 18.752 39.464C19.072 40.04 19.232 40.6427 19.232 41.272V41.496C19.232 42.1253 19.072 42.7333 18.752 43.32C18.432 43.896 17.9573 44.3707 17.328 44.744C16.7093 45.1067 15.952 45.288 15.056 45.288ZM30.0894 45.224C28.5427 45.224 27.3587 44.728 26.5374 43.736C25.716 42.7333 25.3054 41.2453 25.3054 39.272V39.048C25.3054 37.0747 25.7 35.592 26.4894 34.6C27.2787 33.5973 28.4414 33.096 29.9774 33.096C30.8947 33.096 31.652 33.2453 32.2494 33.544C32.8467 33.8427 33.2947 34.2533 33.5934 34.776C33.9027 35.2987 34.0734 35.9013 34.1054 36.584H32.7294C32.6867 35.912 32.436 35.384 31.9774 35C31.5187 34.6053 30.852 34.408 29.9774 34.408C28.9107 34.408 28.0947 34.776 27.5294 35.512C26.964 36.248 26.6814 37.464 26.6814 39.16C26.6814 40.856 26.9747 42.072 27.5614 42.808C28.1587 43.544 29.0014 43.912 30.0894 43.912C30.996 43.912 31.668 43.72 32.1054 43.336C32.5427 42.9413 32.7827 42.408 32.8254 41.736H34.2014C34.1694 42.4293 34.004 43.0373 33.7054 43.56C33.4067 44.0827 32.9587 44.4933 32.3614 44.792C31.764 45.08 31.0067 45.224 30.0894 45.224ZM23.8974 41.048V39.992H31.0014V41.048H23.8974ZM24.1854 38.616V37.56H31.2894V38.616H24.1854Z" fill="#365758"/>
<path d="M120.501 40.5703V39.1465H128.991V40.5703H120.501Z" fill="#585555"/>
<rect x="134" y="28" width="116" height="24" rx="12" fill="#819191" fill-opacity="0.1"/>
<path d="M147.264 45V34.088L147.968 34.632H144.672V33.32H148.8V45H147.264ZM156.671 45.288C155.796 45.288 155.049 45.1387 154.431 44.84C153.823 44.5307 153.327 44.1147 152.943 43.592C152.569 43.0693 152.297 42.4667 152.127 41.784C151.956 41.0907 151.871 40.36 151.871 39.592V38.728C151.871 37.6507 152.036 36.68 152.367 35.816C152.708 34.952 153.231 34.2693 153.935 33.768C154.649 33.256 155.561 33 156.671 33C157.78 33 158.687 33.256 159.391 33.768C160.095 34.2693 160.612 34.952 160.943 35.816C161.284 36.68 161.455 37.6507 161.455 38.728V39.592C161.455 40.36 161.369 41.0907 161.199 41.784C161.028 42.4667 160.751 43.0693 160.367 43.592C159.993 44.1147 159.503 44.5307 158.895 44.84C158.287 45.1387 157.545 45.288 156.671 45.288ZM156.671 43.88C157.78 43.88 158.591 43.5067 159.103 42.76C159.625 42.0027 159.887 40.808 159.887 39.176C159.887 37.4693 159.62 36.248 159.087 35.512C158.564 34.776 157.759 34.408 156.671 34.408C155.572 34.408 154.756 34.776 154.223 35.512C153.7 36.248 153.439 37.4587 153.439 39.144C153.439 40.7867 153.7 41.9867 154.223 42.744C154.745 43.5013 155.561 43.88 156.671 43.88ZM172.73 45.224C171.183 45.224 169.999 44.728 169.178 43.736C168.357 42.7333 167.946 41.2453 167.946 39.272V39.048C167.946 37.0747 168.341 35.592 169.13 34.6C169.919 33.5973 171.082 33.096 172.618 33.096C173.535 33.096 174.293 33.2453 174.89 33.544C175.487 33.8427 175.935 34.2533 176.234 34.776C176.543 35.2987 176.714 35.9013 176.746 36.584H175.37C175.327 35.912 175.077 35.384 174.618 35C174.159 34.6053 173.493 34.408 172.618 34.408C171.551 34.408 170.735 34.776 170.17 35.512C169.605 36.248 169.322 37.464 169.322 39.16C169.322 40.856 169.615 42.072 170.202 42.808C170.799 43.544 171.642 43.912 172.73 43.912C173.637 43.912 174.309 43.72 174.746 43.336C175.183 42.9413 175.423 42.408 175.466 41.736H176.842C176.81 42.4293 176.645 43.0373 176.346 43.56C176.047 44.0827 175.599 44.4933 175.002 44.792C174.405 45.08 173.647 45.224 172.73 45.224ZM166.538 41.048V39.992H173.642V41.048H166.538ZM166.826 38.616V37.56H173.93V38.616H166.826Z" fill="#365758"/>
</svg>
